PathFileType	4	(X/Y/Z)	E:\Qualisys_Data\Carbon_Farble_Plate\Data\Amateur_Runner\S1\T2\S1T2V12_c3d.trc
DataRate	CameraRate	NumFrames	NumMarkers	Units	OrigDataRate	OrigDataStartFrame	OrigNumFrames
200.000000	200.000000	4	39	mm	200.000000	117	312
Frame#	Time	LSHO			RSHO			LICST			RICST			LASIS			LHEEL			RASIS			LTROC			RTROC			SACR			LTH1			LSK4			LTH2			LTH3			RHM5			LSK2			LTH4			RTH1			LTOE			RTH2			RTH3			RTH4			LLEP			RLEP			LSK1			LSK3			RSK1			LHM5			RSK2			LFT1			RSK3			RSK4			LLME			RLME			RTOE			RHEEL			RFT1			RFT2			LFT2			
		X1	Y1	Z1	X2	Y2	Z2	X3	Y3	Z3	X4	Y4	Z4	X5	Y5	Z5	X6	Y6	Z6	X7	Y7	Z7	X8	Y8	Z8	X9	Y9	Z9	X10	Y10	Z10	X11	Y11	Z11	X12	Y12	Z12	X13	Y13	Z13	X14	Y14	Z14	X15	Y15	Z15	X16	Y16	Z16	X17	Y17	Z17	X18	Y18	Z18	X19	Y19	Z19	X20	Y20	Z20	X21	Y21	Z21	X22	Y22	Z22	X23	Y23	Z23	X24	Y24	Z24	X25	Y25	Z25	X26	Y26	Z26	X27	Y27	Z27	X28	Y28	Z28	X29	Y29	Z29	X30	Y30	Z30	X31	Y31	Z31	X32	Y32	Z32	X33	Y33	Z33	X34	Y34	Z34	X35	Y35	Z35	X36	Y36	Z36	X37	Y37	Z37	X38	Y38	Z38	X39	Y39	Z39	

118	0.585	-403.8529968261719	1447.405883789062	-557.0150756835938	-411.1146545410156	1465.417602539062	-224.0567779541016	-463.3612060546875	1004.36083984375	-507.0675964355469	-459.1246643066406	1015.105041503906	-202.8859252929688	-417.9491577148438	966.7677001953124	-480.6280212402344	-723.1503295898438	104.8749313354492	-375.39892578125	-419.0429382324219	967.7501831054688	-212.8511199951172	-528.3327026367188	885.6285400390625	-521.5603637695312	-521.033935546875	873.114501953125	-184.8661041259766	-578.8860473632812	1027.025756835938	-349.0577392578125	-391.9302673339844	737.2711181640625	-502.8300476074219	-635.064208984375	249.9793548583984	-421.6490173339844	-473.6230773925781	725.3786010742188	-525.17724609375	-384.1592712402344	634.8619384765625	-486.064697265625	-605.2255859375	171.0184631347656	-192.7525329589844	-579.1581420898438	326.7415161132812	-465.2909851074219	-469.1465148925781	627.4786376953125	-499.8705749511719	-350.6302185058594	792.342529296875	-197.7060089111328	-471.7457275390625	62.47952270507812	-393.986083984375	-420.1560668945312	757.90966796875	-173.1441192626953	-305.4732971191406	700.9144287109375	-197.2958831787109	-379.0812683105469	666.6524047851562	-182.8373718261719	-427.6557922363281	478.2828674316406	-458.3726196289062	-292.1567687988281	526.2388305664062	-217.978271484375	-511.0018920898438	280.5289611816406	-447.0674743652344	-572.7081298828125	200.8632965087891	-436.7290344238281	-429.848876953125	412.6013793945312	-203.9711456298828	-545.6149291992188	50.44230270385742	-463.09716796875	-474.0875854492188	478.6458740234375	-220.9608917236328	-719.086181640625	73.47010803222656	-352.9749755859375	-510.6102600097656	354.1184387207031	-216.6357879638672	-553.3008422851562	418.9714965820312	-240.8965759277344	-662.2025146484375	123.6743316650391	-427.4893798828125	-634.2005004882812	310.756591796875	-218.5602264404297	-551.2109985351562	130.0862884521484	-263.7980346679688	-705.4784545898438	331.9739074707031	-268.1106872558594	-719.932861328125	301.1953430175781	-294.7146301269531	-724.6255493164062	313.0097045898438	-240.8462677001953	-725.1747436523438	75.47618865966797	-407.4862060546875
119	0.59	-385.5077819824219	1450.580932617188	-555.9227294921875	-397.6788330078125	1467.990600585938	-223.0634307861328	-445.6846008300781	1006.694702148438	-506.9706115722656	-442.4826354980469	1018.624694824219	-203.5066833496094	-400.8096618652344	967.9817504882812	-480.7781677246094	-722.5598754882812	106.9413986206055	-374.6652526855469	-403.2798156738281	970.7615966796876	-212.4976348876953	-512.8455810546875	887.9117431640625	-521.1851806640625	-504.7968139648438	876.60693359375	-184.354248046875	-561.9465942382812	1029.795043945312	-349.5878601074219	-378.8150024414062	737.4577026367188	-501.0710144042969	-632.0287475585938	252.7759399414062	-421.3225402832031	-460.2525329589844	726.829833984375	-524.4405517578125	-373.491455078125	634.4093627929688	-484.0520629882812	-570.2954711914062	166.2628631591797	-193.6525726318359	-575.1820068359375	328.8381042480469	-464.6399536132812	-458.1307067871094	629.22705078125	-499.287353515625	-333.78662109375	797.6599731445312	-197.7549438476562	-471.3705139160156	62.0778694152832	-393.7464294433594	-402.5760192871094	761.9356689453125	-173.0968933105469	-287.1250915527344	706.954833984375	-197.4971466064453	-359.8655090332031	671.6824951171875	-182.6979827880859	-421.7452392578125	478.4821166992188	-457.4151306152344	-270.8701477050781	532.1273193359375	-217.8907318115234	-507.8257446289062	281.9916687011719	-446.2215576171875	-570.0418701171875	203.2700958251953	-436.5328979492188	-404.9321899414062	414.010986328125	-203.725341796875	-544.9520263671875	50.76979827880859	-462.8481140136719	-452.1017456054688	478.5252990722656	-220.7434692382812	-719.0741577148438	74.93480682373047	-352.9678039550781	-483.7720336914062	352.8425903320312	-216.5036010742188	-528.8851928710938	415.7331848144531	-240.8367767333984	-660.5618896484375	126.7340774536133	-427.7254028320312	-606.114501953125	304.3747863769531	-218.9677886962891	-514.8225708007812	127.7895278930664	-264.1608581542969	-677.5782470703125	322.9250183105469	-268.2822875976562	-690.9523315429688	291.7470092773438	-295.0799255371094	-696.4298706054688	302.6599731445312	-241.3972473144531	-724.2381591796875	78.06718444824219	-407.28125
120	0.595	-367.1231689453125	1454.101318359375	-554.9238891601562	-384.0869140625	1470.804443359375	-222.409423828125	-428.0109252929688	1009.488952636719	-506.6814575195312	-426.9788818359375	1022.148010253906	-204.4064788818359	-383.8928527832031	969.8834838867188	-481.15087890625	-721.66357421875	109.3601684570312	-374.32373046875	-387.1261901855469	974.0850219726562	-213.2587280273438	-496.8528442382812	890.48291015625	-520.8856201171875	-488.142333984375	880.2572631835938	-183.583984375	-545.4305419921875	1032.383056640625	-350.4953002929688	-365.274169921875	737.6569213867188	-498.8197326660156	-628.9703979492188	256.0019836425781	-421.0003662109375	-446.6921081542969	728.7293701171875	-523.9644165039062	-362.9076843261719	634.6656494140625	-481.5743408203125	-535.9354858398438	161.4420928955078	-193.8972778320312	-571.436767578125	331.5093688964844	-463.7389221191406	-447.3037109375	631.1950073242188	-498.8933715820312	-316.833251953125	803.17919921875	-198.0576782226562	-470.8280029296875	61.92251968383789	-393.4032592773438	-384.7503662109375	766.3969116210938	-172.9927215576172	-268.6449890136719	713.27587890625	-197.5504913330078	-341.0516357421875	676.8387451171875	-182.7734527587891	-415.97900390625	479.2161865234375	-456.0988464355469	-249.99267578125	538.3916015625	-217.6842651367188	-504.4769897460938	283.7962036132812	-445.7756042480469	-567.3502197265625	205.8197631835938	-436.2353210449219	-380.5829772949219	414.958740234375	-204.3735656738281	-544.6505126953125	51.33774185180664	-462.5744018554688	-430.378662109375	478.17919921875	-221.1709747314453	-718.070068359375	77.02871704101562	-352.9549560546875	-456.934326171875	350.9991149902344	-216.9930114746094	-504.2791137695312	412.2759704589844	-241.7032165527344	-658.6901245117188	130.3844757080078	-427.5317687988281	-577.4683227539062	297.9447021484375	-219.3594360351562	-478.8760681152344	126.1127853393555	-263.5954284667969	-649.6728515625	313.5545959472656	-268.2346496582031	-660.9345092773438	281.5622863769531	-295.97021484375	-667.1590576171875	292.3194580078125	-241.3570556640625	-723.1339721679688	81.19795227050781	-407.2312622070312
121	0.6	-349.126220703125	1457.467895507812	-553.7830810546875	-370.7040405273438	1473.811889648438	-221.7935638427734	-410.37646484375	1010.595764160156	-507.4900207519531	-410.2783508300781	1026.035034179688	-205.8738098144531	-366.3281555175781	971.5204467773438	-481.2253112792969	-719.5679931640625	114.30859375	-375.305419921875	-371.4472961425781	977.3060302734376	-212.7371215820312	-480.6332702636719	893.0336303710938	-520.818359375	-471.1831359863281	884.2922973632812	-182.7698059082031	-528.3203125	1035.854248046875	-351.2310180664062	-351.9497985839844	737.8275756835938	-496.510986328125	-625.6689453125	259.3408813476562	-420.4344787597656	-433.4359436035156	731.0347290039062	-523.2257690429688	-352.3875427246094	634.9136962890625	-479.7567749023438	-501.1149597167969	156.7981719970703	-194.2247619628906	-567.8184814453125	334.7827758789062	-463.0626831054688	-436.8322143554688	633.2174682617188	-497.6670837402344	-299.5565185546875	809.01123046875	-198.0153503417969	-470.3639221191406	61.47183227539062	-393.43603515625	-367.4256286621094	771.373779296875	-172.9747467041016	-250.3493499755859	719.5115356445312	-197.9246063232422	-322.1572570800781	682.218505859375	-182.8135375976562	-410.1659240722656	480.597900390625	-455.1951904296875	-229.404296875	544.7574462890625	-217.4703826904297	-500.9609069824219	286.5185546875	-445.7648010253906	-564.533447265625	208.5431823730469	-435.4967346191406	-356.3942260742188	416.3782653808594	-204.1227111816406	-544.1572265625	51.59111404418945	-462.4444885253906	-408.2431945800781	477.2561340332031	-221.2147521972656	-716.5936889648438	81.42236328125	-353.9341735839844	-430.2202453613281	349.2167663574219	-217.1141662597656	-479.6873474121094	408.5497131347656	-241.8371734619141	-656.6952514648438	134.2409515380859	-427.0548400878906	-548.3143310546875	291.306884765625	-219.3132476806641	-441.3360900878906	124.1797332763672	-265.2773742675781	-620.080322265625	304.8290100097656	-267.2850952148438	-630.7313232421875	271.0904846191406	-295.5085754394531	-637.8180541992188	281.5220947265625	-241.3040466308594	-721.949951171875	85.56887817382812	-407.4790649414062
